<svg xmlns="http://www.w3.org/2000/svg" width="25" height="13" viewBox="0 0 25 13"><defs><linearGradient id="a" x1="101.017%" x2="0%" y1="63.905%" y2="36.095%"><stop offset="0%" stop-color="#DF56EB"/><stop offset="44.431%" stop-color="#FF59C7"/><stop offset="100%" stop-color="#FFBB5F"/></linearGradient></defs><path fill="url(#a)" fill-rule="nonzero" d="M12.326 0c6.63 0 11.922 5.773 12.142 6.018a.722.722 0 0 1 0 .964C24.248 7.227 18.955 13 12.326 13 5.696 13 .404 7.227.184 6.982a.722.722 0 0 1 0-.964C.404 5.773 5.697 0 12.326 0zm0 1.444A5.062 5.062 0 0 0 7.27 6.5a5.062 5.062 0 0 0 5.056 5.056A5.062 5.062 0 0 0 17.38 6.5a5.062 5.062 0 0 0-5.055-5.056zm0 1.445c.59 0 1.14.156 1.632.408a2.16 2.16 0 0 0-.91 1.759c0 1.421 1.373 2.52 2.828 2.053a3.61 3.61 0 0 1-3.55 3.002A3.615 3.615 0 0 1 8.715 6.5a3.615 3.615 0 0 1 3.61-3.611z"/></svg>