<svg xmlns="http://www.w3.org/2000/svg" width="22" height="22" viewBox="0 0 22 22"><defs><linearGradient id="a" x1="101.017%" x2="0%" y1="100%" y2="0%"><stop offset="0%" stop-color="#DF56EB"/><stop offset="44.431%" stop-color="#FF59C7"/><stop offset="100%" stop-color="#FFBB5F"/></linearGradient></defs><path fill="url(#a)" fill-rule="nonzero" d="M21.355 18.133c.324 0 .592.238.638.55l.007.094v2.578c0 .32-.238.591-.55.638l-.095.007h-2.578a.644.644 0 0 1-.095-1.282l.095-.007H19.8l-1.478-1.478a.644.644 0 0 1 .831-.98l.08.069 1.478 1.478v-1.023c0-.356.288-.644.644-.644zm-17.677.189c.227.226.25.58.068.831l-.068.08L2.2 20.711h1.023a.644.644 0 0 1 .095 1.282L3.223 22H.645a.648.648 0 0 1-.638-.55L0 21.356v-2.578a.644.644 0 0 1 1.282-.095l.007.095V19.8l1.478-1.478a.644.644 0 0 1 .911 0zM11 3.91c5.958 0 10.64 6.44 10.836 6.715a.643.643 0 0 1 0 .75C21.64 11.65 16.958 18.09 11 18.09S.36 11.65.164 11.375a.643.643 0 0 1 0-.75C.36 10.35 5.042 3.91 11 3.91zm0 2.578A4.517 4.517 0 0 0 6.488 11 4.517 4.517 0 0 0 11 15.512 4.517 4.517 0 0 0 15.512 11 4.517 4.517 0 0 0 11 6.488zm0 1.29A3.226 3.226 0 0 1 14.223 11 3.226 3.226 0 0 1 11 14.223 3.226 3.226 0 0 1 7.777 11 3.226 3.226 0 0 1 11 7.777zm0 1.288A1.936 1.936 0 0 0 9.066 11c0 1.066.868 1.934 1.934 1.934A1.936 1.936 0 0 0 12.934 11 1.936 1.936 0 0 0 11 9.066zm0 1.29a.645.645 0 1 1-.002 1.29.645.645 0 0 1 .002-1.29zM21.355 0a.644.644 0 0 1 .64.56L22 .646v2.578a.644.644 0 0 1-1.282.095l-.007-.095V2.2l-1.478 1.478a.644.644 0 0 1-.98-.831l.069-.08L19.8 1.289h-1.023a.644.644 0 0 1-.095-1.282L18.777 0h2.578zM3.223 0a.644.644 0 1 1 0 1.29H2.2l1.478 1.477a.644.644 0 1 1-.911.911L1.289 2.2v1.023a.644.644 0 1 1-1.289 0V.645C0 .293.288 0 .645 0z"/></svg>