<svg version="1.1" id="Layer_1" xmlns="http://www.w3.org/2000/svg" xmlns:xlink="http://www.w3.org/1999/xlink" x="0px" y="0px" viewBox="0 0 96.3 103.3" style="enable-background:new 0 0 96.3 103.3" xml:space="preserve"><path d="M96.3 51.6c-.1-4.4-3.7-7.9-8.1-7.9s-8 3.5-8.1 7.9v-7.9c-.1-4.4-3.7-7.9-8.1-7.9-4.4 0-8 3.5-8.1 7.9v-7.9c-.1-4.4-3.7-7.9-8.1-7.9s-8 3.5-8.1 7.9V7.9c.1-4.4-3.5-7.9-7.9-7.9s-8 3.5-8.1 7.9v49.5L16.2 41.9l-1.1-1.1-.1.1c-1.6-1.1-3.5-1.7-5.5-1.7-2.6 0-5 1-6.8 2.8-3.3 3.3-3.7 8.6-1 12.3l-.1.1 39.7 39.7.1-.1c5.8 5.7 13.8 9.2 22.5 9.2 17.8 0 32.3-14.5 32.3-32.3l.1-19.3z" style="fill:#fff"/></svg>