<svg version="1.1" id="Layer_1" xmlns="http://www.w3.org/2000/svg" xmlns:xlink="http://www.w3.org/1999/xlink" x="0px" y="0px" viewBox="0 0 632 120" style="enable-background:new 0 0 632 120" xml:space="preserve"><style type="text/css">.st0{fill:#19b5ff}.st1{fill:#fc59a2}.st3{fill:#8e3dcb}.st4{fill:#fff}.st5{fill:#fed202}.st6{fill:#87c831}</style><rect id="XMLID_507_" y="-0.1" class="st0" width="632" height="120"/><g id="XMLID_108_"><path id="XMLID_109_" class="st1" d="M132.5-.1h-2.7v.9c.8-.4 1.7-.7 2.7-.9z"/><path id="XMLID_113_" class="st1" d="M168.3 6.9h3.6v5.8h-3.6v5.4h-7.5v-5.4h-13.6l-1.3-5.5L152-.1h-15.9c4.2.6 7.7 3.4 7.7 8.8 0 6.2-4.8 10-11.6 10-5 0-8.4-1.7-11.4-4.4l4.4-5.2c2.3 1.9 4.4 3 6.8 3 2.6 0 4.1-1.3 4.1-3.4 0-2-1.7-3.2-4.1-3.2-1.7 0-3.2.6-4.5 1.4l-4.6-2.6.2-4.4H73.8v47.8h145.4V-.1h-51v7z"/><polygon id="XMLID_114_" class="st1" points="154.1,6.9 160.7,6.9 160.7,-0.1 159.9,-0.1 	"/><polygon id="XMLID_115_" points="316.5,18.1 308.8,18.1 308.8,-0.1 243.1,-0.1 243.1,47.7 388.6,47.7 388.6,-0.1 
		316.5,-0.1 	" style="fill:#fe7f10"/><path id="XMLID_116_" class="st3" d="M499.9-.1h-2.7v.9c.7-.4 1.6-.7 2.7-.9z"/><path id="XMLID_117_" class="st3" d="M511.2 8.7c0 6.2-4.8 10-11.6 10-5 0-8.4-1.7-11.4-4.4l4.4-5.2c2.3 1.9 4.4 3 6.8 3 2.6 0 4.1-1.3 4.1-3.4 0-2-1.7-3.2-4.1-3.2-1.7 0-3.2.6-4.5 1.4l-4.6-2.6.2-4.4h-10.1l-1.7 1.5c4 .9 7.2 3.1 7.2 8 0 5.7-4.6 9.3-10.8 9.3-5.4 0-9.2-2-11.9-5l4.9-4.9c2 2 4.1 3.2 6.7 3.2 2.2 0 3.6-1.1 3.6-2.9 0-1.8-1.6-2.9-4.6-2.9h-3.3l-1.1-4L472-.1h-59.7v47.8h145.4V-.1h-54.4c4.4.7 7.9 3.5 7.9 8.8z"/><rect id="XMLID_118_" x="308.8" y="-0.1" class="st4" width="7.6" height="18.2"/><path id="XMLID_119_" class="st4" d="M470.7 6.3h3.3c2.9 0 4.6 1.1 4.6 2.9 0 1.8-1.4 2.9-3.6 2.9-2.6 0-4.7-1.2-6.7-3.2l-4.9 4.9c2.7 3 6.5 5 11.9 5 6.2 0 10.8-3.6 10.8-9.3 0-4.8-3.2-7.1-7.2-8l1.7-1.5h-8.5l-2.6 2.3 1.2 4z"/><path id="XMLID_120_" class="st4" d="M495 6.9c1.3-.8 2.8-1.4 4.5-1.4 2.4 0 4.1 1.2 4.1 3.2 0 2.1-1.6 3.4-4.1 3.4-2.4 0-4.5-1.1-6.8-3l-4.4 5.2c2.9 2.7 6.4 4.4 11.4 4.4 6.8 0 11.6-3.7 11.6-10 0-5.4-3.5-8.2-7.7-8.8H500c-1 .2-1.9.5-2.8.9v-.9h-6.5l-.2 4.4 4.5 2.6z"/><path id="XMLID_121_" class="st4" d="M127.7 6.9c1.3-.8 2.8-1.4 4.5-1.4 2.4 0 4.1 1.2 4.1 3.2 0 2.1-1.6 3.4-4.1 3.4-2.4 0-4.5-1.1-6.8-3l-4.4 5.2c2.9 2.7 6.4 4.4 11.4 4.4 6.8 0 11.6-3.7 11.6-10 0-5.4-3.5-8.2-7.7-8.8h-3.6c-1 .2-1.9.5-2.8.9v-.9h-6.5l-.2 4.4 4.5 2.6z"/><polygon id="XMLID_122_" class="st4" points="147.2,12.7 160.7,12.7 160.7,18.1 168.3,18.1 168.3,12.7 171.8,12.7 171.8,6.9 
		168.3,6.9 168.3,-0.1 160.7,-0.1 160.7,6.9 154.1,6.9 159.9,-0.1 152,-0.1 145.9,7.2 	"/><path id="XMLID_131_" class="st0" d="M501.6-.2c-.6 0-1.2.1-1.7.1h3.6c-.6-.1-1.3-.1-1.9-.1z"/><path id="XMLID_132_" class="st0" d="M134.3-.2c-.6 0-1.2.1-1.7.1h3.6c-.7-.1-1.3-.1-1.9-.1z"/></g><g id="XMLID_87_"><path id="XMLID_88_" class="st5" d="M136.7 103.9h-13v-6.5h21.6v5.8l-9.4 16.8h11.7c-.3-.8-.4-1.6-.4-2.5 0-3.4 1.8-5.4 4.8-6.7-2.2-1.2-3.8-3-3.8-6.2 0-4.5 4.3-7.8 10.6-7.8s10.6 3.3 10.6 7.9c0 3-1.7 4.9-3.8 6.1 2.8 1.3 4.8 3.2 4.8 6.8 0 .9-.2 1.7-.4 2.4h49.6V71H73.8v49h53.6l9.3-16.1z"/><path id="XMLID_99_" class="st5" d="M162.7 116.8c0-1.8-1.7-3-4-3-2.4 0-4 1.2-4 3.1 0 1.7 1.4 3.2 4 3.2 2.5-.1 4-1.5 4-3.3z"/><path id="XMLID_100_" class="st5" d="M158.6 102.7c-2.1 0-3.4 1.4-3.4 3 0 1.8 1.4 3.1 3.4 3.1 2.1 0 3.4-1.3 3.4-3.1.1-1.7-1.2-3-3.4-3z"/><path id="XMLID_101_" class="st6" d="M314.8 102.7c-2.1 0-3.4 1.4-3.4 3 0 1.8 1.4 3.1 3.4 3.1 2.1 0 3.4-1.3 3.4-3.1.1-1.7-1.2-3-3.4-3z"/><path id="XMLID_102_" class="st6" d="M293.7 116.8c0-1.8-1.7-3-4-3-2.4 0-4 1.2-4 3.1 0 1.7 1.4 3.2 4 3.2 2.5-.1 4-1.5 4-3.3z"/><path id="XMLID_103_" class="st6" d="M278.1 117.6c0-3.4 1.8-5.4 4.8-6.7-2.2-1.2-3.8-3-3.8-6.2 0-4.5 4.3-7.8 10.6-7.8s10.6 3.3 10.6 7.9c0 3-1.7 4.9-3.8 6.1 2.8 1.3 4.8 3.2 4.8 6.8 0 .9-.2 1.7-.4 2.4h3c-.3-.8-.4-1.6-.4-2.5 0-3.4 1.8-5.4 4.8-6.7-2.2-1.2-3.8-3-3.8-6.2 0-4.5 4.3-7.8 10.6-7.8s10.6 3.3 10.6 7.9c0 3-1.7 4.9-3.8 6.1 2.8 1.3 4.8 3.2 4.8 6.8 0 .9-.2 1.7-.4 2.4h3.5l3.2-3.8c2.3 1.9 4.4 3 6.8 3 2.6 0 4.1-1.3 4.1-3.4 0-2-1.7-3.2-4.1-3.2-1.7 0-3.2.6-4.5 1.4l-4.6-2.6.8-14.2h18.7v6.4h-12.6l-.6 4.3c1.3-.6 2.6-1 4.5-1 5 0 9.6 2.8 9.6 9 0 1.5-.3 2.9-.8 4.1h38.2v-49H243.1v49h35.5c-.3-.8-.5-1.7-.5-2.5z"/><path id="XMLID_104_" class="st6" d="M318.9 116.8c0-1.8-1.7-3-4-3s-4 1.2-4 3.1c0 1.7 1.4 3.2 4 3.2 2.5-.1 4-1.5 4-3.3z"/><path id="XMLID_105_" class="st6" d="M289.6 102.7c-2.1 0-3.4 1.4-3.4 3 0 1.8 1.4 3.1 3.4 3.1 2.1 0 3.4-1.3 3.4-3.1.1-1.7-1.2-3-3.4-3z"/><polygon id="XMLID_106_" class="st0" points="474.7,114.2 474.7,106.1 468,114.2 	"/><path id="XMLID_107_" class="st0" d="M501.4 103.7c-3.1 0-5.1 3.1-5.1 7.7 0 4.5 2.1 7.7 5.2 7.7s5.1-3.2 5.1-7.7-2.1-7.7-5.2-7.7z"/><path id="XMLID_110_" class="st0" d="M474.7 119.9h-13.6l-1.3-5.5 14.5-17.3h7.8v17h3.6v5.8h-3.6v.1h8.6c-1.5-2.4-2.3-5.4-2.3-8.7 0-7.9 5-14.6 13-14.6s12.9 6.6 12.9 14.6c0 3.2-.8 6.2-2.4 8.7h45.8V71H412.4v49h62.3v-.1z"/><path id="XMLID_123_" class="st4" d="M485.7 119.9v-5.8h-3.6v-17h-7.8l-14.5 17.3 1.3 5.5h13.6v.1h7.5v-.1h3.5zm-11-5.7H468l6.7-8v8z"/><path id="XMLID_126_" class="st4" d="M501.5 96.8c-8 0-13 6.6-13 14.6 0 3.2.8 6.2 2.3 8.7H512c1.5-2.4 2.4-5.4 2.4-8.7 0-8-5-14.6-12.9-14.6zm0 22.2c-3.1 0-5.2-3.2-5.2-7.7 0-4.6 2-7.7 5.1-7.7s5.2 3.2 5.2 7.7c0 4.6-2 7.7-5.1 7.7z"/><polygon id="XMLID_127_" class="st4" points="145.3,97.4 123.7,97.4 123.7,103.9 136.7,103.9 127.4,120 135.9,120 145.3,103.2 	"/><path id="XMLID_130_" class="st4" d="M165.4 110.8c2.2-1.2 3.8-3 3.8-6.1 0-4.6-4.3-7.9-10.6-7.9s-10.6 3.3-10.6 7.8c0 3.1 1.7 5 3.8 6.2-3 1.3-4.8 3.3-4.8 6.7 0 .9.2 1.7.4 2.5h11.1c-2.6 0-4-1.5-4-3.2 0-1.9 1.7-3.1 4-3.1 2.4 0 4 1.2 4 3s-1.4 3.2-4 3.2h11.1c.3-.8.4-1.6.4-2.4.2-3.5-1.8-5.3-4.6-6.7zm-6.8-2.1c-2.1 0-3.4-1.3-3.4-3.1 0-1.6 1.3-3 3.4-3 2.1 0 3.4 1.4 3.4 3 .1 1.8-1.3 3.1-3.4 3.1z"/><path id="XMLID_135_" class="st4" d="M296.4 110.8c2.2-1.2 3.8-3 3.8-6.1 0-4.6-4.3-7.9-10.6-7.9s-10.6 3.3-10.6 7.8c0 3.1 1.7 5 3.8 6.2-3 1.3-4.8 3.3-4.8 6.7 0 .9.2 1.7.4 2.5h11.1c-2.6 0-4-1.5-4-3.2 0-1.9 1.7-3.1 4-3.1 2.4 0 4 1.2 4 3s-1.4 3.2-4 3.2h11.1c.3-.8.4-1.6.4-2.4.2-3.5-1.8-5.3-4.6-6.7zm-6.8-2.1c-2.1 0-3.4-1.3-3.4-3.1 0-1.6 1.3-3 3.4-3s3.4 1.4 3.4 3c.1 1.8-1.3 3.1-3.4 3.1z"/><path id="XMLID_138_" class="st4" d="M321.6 110.8c2.2-1.2 3.8-3 3.8-6.1 0-4.6-4.3-7.9-10.6-7.9s-10.6 3.3-10.6 7.8c0 3.1 1.7 5 3.8 6.2-3 1.3-4.8 3.3-4.8 6.7 0 .9.2 1.7.4 2.5h11.1c-2.6 0-4-1.5-4-3.2 0-1.9 1.7-3.1 4-3.1s4 1.2 4 3-1.4 3.2-4 3.2h11.1c.3-.8.4-1.6.4-2.4.2-3.5-1.8-5.3-4.6-6.7zm-6.8-2.1c-2.1 0-3.4-1.3-3.4-3.1 0-1.6 1.3-3 3.4-3 2.1 0 3.4 1.4 3.4 3 .1 1.8-1.3 3.1-3.4 3.1z"/><path id="XMLID_139_" class="st4" d="M341.5 107c-1.9 0-3.2.4-4.5 1l.2-4.2h12.6v-6.4h-18.7l-.8 14.2 4.6 2.6c1.3-.8 2.8-1.4 4.5-1.4 2.4 0 4.1 1.2 4.1 3.2 0 2.1-1.6 3.4-4.1 3.4-2.4 0-4.5-1.1-6.8-3l-3.2 3.8h20.9c.5-1.2.8-2.6.8-4.1 0-6.3-4.5-9.1-9.6-9.1z"/></g></svg>